<svg xmlns="http://www.w3.org/2000/svg" xmlns:xlink="http://www.w3.org/1999/xlink" width="258" height="157" viewBox="0 0 258 157">
  <defs>
    <clipPath id="clip-path">
      <rect id="Rectángulo_63" data-name="Rectángulo 63" width="258" height="157" transform="translate(2343 -282)" fill="#fff" stroke="#707070" stroke-width="1"/>
    </clipPath>
  </defs>
  <g id="logo" transform="translate(-2343 282)" clip-path="url(#clip-path)">
    <g id="Grupo_4" data-name="Grupo 4" transform="translate(2082 -533)">
      <g id="Grupo_1" data-name="Grupo 1" transform="translate(279 260)">
        <path id="gym" d="M17.84.8A14.693,14.693,0,0,1,10-1.36a16.331,16.331,0,0,1-5.64-5.8,15.837,15.837,0,0,1-2.12-8.12V-40.64A15.535,15.535,0,0,1,4.36-48.6a16.22,16.22,0,0,1,5.68-5.8,14.755,14.755,0,0,1,7.8-2.16,15.26,15.26,0,0,1,7.96,2.12,15.677,15.677,0,0,1,5.64,5.72,15.856,15.856,0,0,1,2.08,8.08v3.68q0,.32-.4.32H24.16a.283.283,0,0,1-.32-.32V-40a7.456,7.456,0,0,0-1.72-5.04,5.419,5.419,0,0,0-4.28-2,5.509,5.509,0,0,0-4.12,1.92,6.344,6.344,0,0,0-1.8,4.48v25.36a6.38,6.38,0,0,0,1.76,4.52,5.516,5.516,0,0,0,4.16,1.88,5.619,5.619,0,0,0,4.28-1.84,6.423,6.423,0,0,0,1.72-4.56V-19.2h-5.6a.354.354,0,0,1-.4-.4v-8.96a.354.354,0,0,1,.4-.4H33.2q.32,0,.32.4v13.28A15.837,15.837,0,0,1,31.4-7.16a16.331,16.331,0,0,1-5.64,5.8A14.838,14.838,0,0,1,17.84.8ZM45.36,0q-.24,0-.24-.32l.08-22.72L34.48-55.36q-.08-.32.24-.32H43.6a.429.429,0,0,1,.48.32L50-33.84l6-21.52a.378.378,0,0,1,.4-.32h8.96q.32,0,.24.32l-10.8,32L54.88-.32a.283.283,0,0,1-.32.32ZM70.32,0Q70,0,70-.4l.16-54.96a.283.283,0,0,1,.32-.32h9.76a.692.692,0,0,1,.56.32L88.08-44.8l7.28-10.56a.692.692,0,0,1,.56-.32h9.84a.283.283,0,0,1,.32.32L106.24-.4q0,.4-.32.4H96.88q-.32,0-.32-.4l-.08-40.8-8.4,12.16L79.76-41.2,79.68-.4q0,.4-.32.4Z" transform="translate(54.115 97.102)" fill="#fff"/>
        <rect id="Rectángulo_1" data-name="Rectángulo 1" width="14" height="73.25" fill="#ff5b00"/>
        <rect id="Rectángulo_2" data-name="Rectángulo 2" width="73.25" height="14" fill="#ff5b00"/>
        <path id="Trazado_1" data-name="Trazado 1" d="M0,0H14V71.984H0Z" transform="translate(211.689 65.821)" fill="#ff5b00"/>
        <rect id="Rectángulo_4" data-name="Rectángulo 4" width="73.25" height="14" transform="translate(145.439 123.707)" fill="#ff5b00"/>
      </g>
    </g>
  </g>
</svg>
