<svg xmlns="http://www.w3.org/2000/svg" width="95.332" height="79.615" viewBox="0 0 95.332 79.615">
  <g id="left-quote" transform="translate(0 -7.858)">
    <g id="Grupo_3" data-name="Grupo 3">
      <path id="Trazado_5" data-name="Trazado 5" d="M30.512,43.939a25.26,25.26,0,0,0-6.98-1.019,21.935,21.935,0,0,0-8.752,1.793c2.2-8.054,7.485-21.951,18.013-23.516a2.5,2.5,0,0,0,2.04-1.8l2.3-8.23a2.5,2.5,0,0,0-2.068-3.15,17.477,17.477,0,0,0-2.354-.16c-12.637,0-25.152,13.19-30.433,32.076-3.1,11.08-4.009,27.738,3.627,38.223,4.273,5.867,10.507,9,18.529,9.313l.1,0a22.179,22.179,0,0,0,5.979-43.533Z" fill="#ff5b00"/>
      <path id="Trazado_6" data-name="Trazado 6" d="M92.471,54.413A22.231,22.231,0,0,0,79.137,43.939a25.258,25.258,0,0,0-6.979-1.019,21.94,21.94,0,0,0-8.753,1.793c2.2-8.054,7.485-21.951,18.014-23.516a2.5,2.5,0,0,0,2.04-1.8l2.3-8.23a2.5,2.5,0,0,0-2.068-3.15,17.455,17.455,0,0,0-2.354-.16C68.7,7.858,56.186,21.048,50.9,39.934c-3.1,11.08-4.008,27.738,3.629,38.225,4.272,5.866,10.507,9,18.528,9.312l.1,0a22.179,22.179,0,0,0,19.311-33.06Z" fill="#ff5b00"/>
    </g>
  </g>
</svg>
